<?xml version="1.0" encoding="UTF-8" standalone="no"?>
<!-- Created with Inkscape (http://www.inkscape.org/) -->

<svg
   xmlns:dc="http://purl.org/dc/elements/1.1/"
   xmlns:cc="http://creativecommons.org/ns#"
   xmlns:rdf="http://www.w3.org/1999/02/22-rdf-syntax-ns#"
   xmlns:svg="http://www.w3.org/2000/svg"
   xmlns="http://www.w3.org/2000/svg"
   xmlns:sodipodi="http://sodipodi.sourceforge.net/DTD/sodipodi-0.dtd"
   xmlns:inkscape="http://www.inkscape.org/namespaces/inkscape"
   id="svg2"
   version="1.1"
   inkscape:version="0.48.5 r10040"
   width="68.796272"
   height="68.182327"
   xml:space="preserve"
   sodipodi:docname="GooglePlusIcons.ai"
   inkscape:export-filename="/home/artur/Git-Projects/blog/_extra/gplus.bmp.png"
   inkscape:export-xdpi="90"
   inkscape:export-ydpi="90"><metadata
     id="metadata8"><rdf:RDF><cc:Work
         rdf:about=""><dc:format>image/svg+xml</dc:format><dc:type
           rdf:resource="http://purl.org/dc/dcmitype/StillImage" /><dc:title></dc:title></cc:Work></rdf:RDF></metadata><defs
     id="defs6"><clipPath
       clipPathUnits="userSpaceOnUse"
       id="clipPath20"><path
         d="M 0,226 306,226 306,0 0,0 0,226 z"
         id="path22"
         inkscape:connector-curvature="0" /></clipPath></defs><sodipodi:namedview
     pagecolor="#ffffff"
     bordercolor="#666666"
     borderopacity="1"
     objecttolerance="10"
     gridtolerance="10"
     guidetolerance="10"
     inkscape:pageopacity="0"
     inkscape:pageshadow="2"
     inkscape:window-width="1280"
     inkscape:window-height="774"
     id="namedview4"
     showgrid="false"
     fit-margin-top="0"
     fit-margin-left="0"
     fit-margin-right="0"
     fit-margin-bottom="0"
     inkscape:zoom="3.2559821"
     inkscape:cx="20.487771"
     inkscape:cy="86.835265"
     inkscape:window-x="0"
     inkscape:window-y="0"
     inkscape:window-maximized="1"
     inkscape:current-layer="g10" /><g
     id="g10"
     inkscape:groupmode="layer"
     inkscape:label="GooglePlusIcons"
     transform="matrix(1.25,0,0,-1.25,-170.7626,126.22919)"><path
       d="m 68.607,177.292 13.942,0 0,8.024 -13.942,0 0,-8.024 z"
       style="fill:#16a24a;fill-opacity:1;fill-rule:nonzero;stroke:none"
       id="path12"
       inkscape:connector-curvature="0" /><path
       d="m 54.378,177.292 14.229,0 0,8.024 -14.229,0 0,-8.024 z"
       style="fill:#4d6eb4;fill-opacity:1;fill-rule:nonzero;stroke:none"
       id="path14"
       inkscape:connector-curvature="0" /><g
       id="g16"><g
         id="g18"
         clip-path="url(#clipPath20)"><g
           id="g24"
           transform="translate(90.2793,185.3164)"><path
             d="m 0,0 -7.729,0 0,-8.024 L 6,-8.024 6,-6 C 6,-2.687 3.313,0 0,0"
             style="fill:#efba26;fill-opacity:1;fill-rule:nonzero;stroke:none"
             id="path26"
             inkscape:connector-curvature="0" /></g><g
           id="g28"
           transform="translate(54.3779,185.3164)"><path
             d="m 0,0 -6.245,0 c -3.314,0 -6,-2.687 -6,-6 l 0,-2.024 L 0,-8.024 0,0 z"
             style="fill:#d72327;fill-opacity:1;fill-rule:nonzero;stroke:none"
             id="path30"
             inkscape:connector-curvature="0" /></g><g
           id="g32"
           transform="translate(61.6812,167.4814)"><path
             d="m 0,0 c -1.042,0 -2.163,-0.521 -2.804,-1.322 -0.681,-0.841 -0.882,-1.921 -0.882,-2.964 0,-2.683 1.562,-7.129 5.006,-7.129 1.001,0 2.083,0.481 2.725,1.121 0.92,0.924 1,2.204 1,2.926 C 5.045,-4.485 3.324,0 0,0"
             style="fill:#000000;fill-opacity:1;fill-rule:nonzero;stroke:none"
             id="path34"
             inkscape:connector-curvature="0" /></g><g
           id="g36"
           transform="translate(63.6431,149.6201)"><path
             d="m 0,0 c -0.361,0 -2.523,-0.08 -4.206,-0.643 -0.881,-0.319 -3.443,-1.279 -3.443,-4.125 0,-2.84 2.763,-4.883 7.048,-4.883 3.845,0 5.887,1.839 5.887,4.325 0,2.042 -1.321,3.122 -4.365,5.285 C 0.601,0 0.399,0 0,0"
             style="fill:#000000;fill-opacity:1;fill-rule:nonzero;stroke:none"
             id="path38"
             inkscape:connector-curvature="0" /></g><g
           id="g40"
           transform="translate(87.8999,160.9648)"><path
             d="m 0,0 -5.982,0 0,-5.981 -1.857,0 0,5.981 -5.981,0 0,1.857 5.981,0 0,5.981 1.857,0 0,-5.981 L 0,1.857 0,0 z m -17.649,0.989 c 0,-2.962 -1.683,-4.365 -3.364,-5.685 -0.521,-0.522 -1.123,-1.082 -1.123,-1.965 0,-0.88 0.602,-1.361 1.042,-1.722 l 1.442,-1.12 c 1.762,-1.481 3.364,-2.844 3.364,-5.607 0,-3.765 -3.645,-7.57 -10.534,-7.57 -5.806,0 -8.61,2.763 -8.61,5.727 0,1.442 0.722,3.484 3.085,4.887 2.483,1.522 5.848,1.721 7.649,1.841 -0.561,0.722 -1.201,1.484 -1.201,2.723 0,0.684 0.199,1.083 0.401,1.563 -0.442,-0.039 -0.881,-0.081 -1.283,-0.081 -4.244,0 -6.647,3.166 -6.647,6.289 0,1.841 0.841,3.884 2.562,5.367 2.284,1.883 5.008,2.202 7.169,2.202 l 8.251,0 -2.563,-1.441 -2.484,0 c 0.921,-0.761 2.844,-2.363 2.844,-5.408 m 12.299,15.338 -13.942,0 -14.23,0 -12.245,0 0,-40.122 c 0,-3.313 2.686,-6 6,-6 l 42.146,0 c 3.314,0 6,2.687 6,6 l 0,40.122 -13.729,0 z"
             style="fill:#000000;fill-opacity:1;fill-rule:nonzero;stroke:none"
             id="path42"
             inkscape:connector-curvature="0" /></g><g
           id="g44"
           transform="translate(181.5415,163.7109)"><path
             d="m 0,0 -5.214,0 0,-5.214 -1.619,0 0,5.214 -5.213,0 0,1.619 5.213,0 0,5.213 1.619,0 0,-5.213 L 0,1.619 0,0 z m -15.384,0.862 c 0,-2.582 -1.467,-3.804 -2.932,-4.956 -0.454,-0.454 -0.978,-0.942 -0.978,-1.712 0,-0.767 0.524,-1.186 0.907,-1.501 l 1.258,-0.976 c 1.536,-1.291 2.932,-2.479 2.932,-4.888 0,-3.281 -3.178,-6.598 -9.182,-6.598 -5.061,0 -7.505,2.409 -7.505,4.992 0,1.257 0.629,3.037 2.689,4.259 2.164,1.328 5.098,1.501 6.667,1.606 -0.489,0.629 -1.047,1.293 -1.047,2.373 0,0.596 0.174,0.944 0.35,1.362 -0.386,-0.033 -0.769,-0.07 -1.118,-0.07 -3.7,0 -5.795,2.76 -5.795,5.481 0,1.606 0.734,3.386 2.234,4.678 1.99,1.642 4.364,1.92 6.249,1.92 l 7.191,0 -2.234,-1.256 -2.164,0 c 0.802,-0.664 2.478,-2.059 2.478,-4.714 m -2.058,20.743 c -14.952,0 -27.073,-12.121 -27.073,-27.073 0,-14.952 12.121,-27.073 27.073,-27.073 14.952,0 27.073,12.121 27.073,27.073 0,14.952 -12.121,27.073 -27.073,27.073"
             style="fill:#000000;fill-opacity:1;fill-rule:nonzero;stroke:none"
             id="path46"
             inkscape:connector-curvature="0" /></g><g
           id="g48"
           transform="translate(160.3979,153.8223)"><path
             d="m 0,0 c -0.314,0 -2.199,-0.069 -3.666,-0.56 -0.768,-0.278 -3.001,-1.115 -3.001,-3.595 0,-2.477 2.408,-4.257 6.143,-4.257 3.352,0 5.131,1.603 5.131,3.769 0,1.781 -1.15,2.722 -3.804,4.608 C 0.524,0 0.348,0 0,0"
             style="fill:#000000;fill-opacity:1;fill-rule:nonzero;stroke:none"
             id="path50"
             inkscape:connector-curvature="0" /></g><g
           id="g52"
           transform="translate(158.688,169.3916)"><path
             d="m 0,0 c -0.908,0 -1.885,-0.454 -2.444,-1.153 -0.594,-0.733 -0.768,-1.674 -0.768,-2.583 0,-2.338 1.361,-6.214 4.363,-6.214 0.872,0 1.815,0.42 2.375,0.977 0.802,0.805 0.872,1.921 0.872,2.55 C 4.398,-3.91 2.897,0 0,0"
             style="fill:#000000;fill-opacity:1;fill-rule:nonzero;stroke:none"
             id="path54"
             inkscape:connector-curvature="0" /></g><g
           id="g56"
           transform="translate(243.375,167.3623)"><path
             d="m 0,0 c 0.92,-0.762 2.844,-2.363 2.844,-5.408 0,-2.962 -1.683,-4.365 -3.365,-5.686 -0.52,-0.521 -1.122,-1.082 -1.122,-1.965 0,-0.879 0.602,-1.361 1.041,-1.721 l 1.443,-1.12 c 1.762,-1.482 3.364,-2.844 3.364,-5.608 0,-3.764 -3.645,-7.569 -10.534,-7.569 -5.806,0 -8.61,2.763 -8.61,5.726 0,1.443 0.721,3.485 3.085,4.887 2.482,1.523 5.848,1.722 7.649,1.842 -0.561,0.722 -1.202,1.483 -1.202,2.723 0,0.683 0.199,1.083 0.402,1.562 -0.443,-0.038 -0.882,-0.08 -1.283,-0.08 -4.245,0 -6.648,3.166 -6.648,6.288 0,1.842 0.842,3.885 2.563,5.367 2.284,1.883 5.007,2.202 7.169,2.202 l 8.25,0 L 2.483,0 0,0 m -2.843,-17.783 c -0.32,0.041 -0.522,0.041 -0.921,0.041 -0.361,0 -2.523,-0.08 -4.206,-0.643 -0.881,-0.319 -3.444,-1.279 -3.444,-4.125 0,-2.841 2.764,-4.884 7.049,-4.884 3.844,0 5.886,1.84 5.886,4.326 0,2.042 -1.32,3.122 -4.364,5.285 m 1.162,7.608 c 0.92,0.924 1,2.204 1,2.926 0,2.883 -1.721,7.368 -5.045,7.368 -1.042,0 -2.163,-0.52 -2.804,-1.322 -0.681,-0.841 -0.882,-1.921 -0.882,-2.964 0,-2.683 1.562,-7.129 5.006,-7.129 1.001,0 2.083,0.482 2.725,1.121"
             style="fill:#231f20;fill-opacity:1;fill-rule:nonzero;stroke:none"
             id="path58"
             inkscape:connector-curvature="0" /></g><g
           id="g60"
           transform="translate(263.8677,162.8223)"><path
             d="m 0,0 -5.982,0 0,5.98 -1.857,0 0,-5.98 -5.981,0 0,-1.857 5.981,0 0,-5.982 1.857,0 0,5.982 5.982,0 L 0,0 z"
             style="fill:#231f20;fill-opacity:1;fill-rule:nonzero;stroke:none"
             id="path62"
             inkscape:connector-curvature="0" /></g><g
           id="g64"
           transform="translate(158.5366,67.6445)"><path
             d="m 0,0 c -0.361,0 -2.523,-0.08 -4.206,-0.643 -0.881,-0.319 -3.443,-1.279 -3.443,-4.125 0,-2.84 2.763,-4.883 7.048,-4.883 3.845,0 5.887,1.839 5.887,4.325 0,2.042 -1.321,3.122 -4.365,5.285 C 0.601,0 0.399,0 0,0"
             style="fill:#000000;fill-opacity:1;fill-rule:nonzero;stroke:none"
             id="path66"
             inkscape:connector-curvature="0" /></g><g
           id="g68"
           transform="translate(182.7935,78.9893)"><path
             d="m 0,0 -5.982,0 0,-5.981 -1.857,0 0,5.981 -5.981,0 0,1.857 5.981,0 0,5.981 1.857,0 0,-5.981 L 0,1.857 0,0 z m -17.649,0.989 c 0,-2.962 -1.683,-4.365 -3.364,-5.685 -0.521,-0.522 -1.123,-1.082 -1.123,-1.965 0,-0.88 0.602,-1.361 1.042,-1.722 l 1.442,-1.12 c 1.762,-1.481 3.364,-2.844 3.364,-5.607 0,-3.765 -3.645,-7.57 -10.534,-7.57 -5.806,0 -8.61,2.763 -8.61,5.727 0,1.442 0.722,3.484 3.085,4.887 2.483,1.522 5.848,1.721 7.649,1.841 -0.561,0.722 -1.201,1.484 -1.201,2.723 0,0.684 0.199,1.083 0.401,1.563 -0.442,-0.039 -0.881,-0.081 -1.283,-0.081 -4.244,0 -6.647,3.166 -6.647,6.289 0,1.841 0.841,3.884 2.562,5.367 2.284,1.883 5.008,2.202 7.169,2.202 l 8.251,0 -2.563,-1.441 -2.484,0 c 0.921,-0.761 2.844,-2.363 2.844,-5.408 m 20.028,20.663 -42.146,0 c -3.314,0 -6,-2.686 -6,-6 l 0,-42.146 c 0,-3.314 2.686,-6 6,-6 l 42.146,0 c 3.314,0 6,2.686 6,6 l 0,42.146 c 0,3.314 -2.686,6 -6,6"
             style="fill:#000000;fill-opacity:1;fill-rule:nonzero;stroke:none"
             id="path70"
             inkscape:connector-curvature="0" /></g><g
           id="g72"
           transform="translate(156.5747,85.5059)"><path
             d="m 0,0 c -1.042,0 -2.163,-0.521 -2.804,-1.322 -0.681,-0.841 -0.882,-1.921 -0.882,-2.964 0,-2.683 1.562,-7.129 5.006,-7.129 1.001,0 2.083,0.481 2.725,1.121 0.92,0.924 1,2.204 1,2.926 C 5.045,-4.485 3.324,0 0,0"
             style="fill:#000000;fill-opacity:1;fill-rule:nonzero;stroke:none"
             id="path74"
             inkscape:connector-curvature="0" /></g><path
           d="m 68.607,92.617 13.942,0 0,8.024 -13.942,0 0,-8.024 z"
           style="fill:#949494;fill-opacity:1;fill-rule:nonzero;stroke:none"
           id="path76"
           inkscape:connector-curvature="0" /><path
           d="m 54.378,92.617 14.229,0 0,8.024 -14.229,0 0,-8.024 z"
           style="fill:#6e6e6e;fill-opacity:1;fill-rule:nonzero;stroke:none"
           id="path78"
           inkscape:connector-curvature="0" /><g
           id="g80"
           transform="translate(90.2793,100.6416)"><path
             d="m 0,0 -7.729,0 0,-8.024 L 6,-8.024 6,-6 C 6,-2.687 3.313,0 0,0"
             style="fill:#b8b8b8;fill-opacity:1;fill-rule:nonzero;stroke:none"
             id="path82"
             inkscape:connector-curvature="0" /></g><g
           id="g84"
           transform="translate(54.3779,100.6416)"><path
             d="m 0,0 -6.245,0 c -3.314,0 -6,-2.687 -6,-6 l 0,-2.024 L 0,-8.024 0,0 z"
             style="fill:#444444;fill-opacity:1;fill-rule:nonzero;stroke:none"
             id="path86"
             inkscape:connector-curvature="0" /></g><g
           id="g88"
           transform="translate(61.6812,82.8066)"><path
             d="m 0,0 c -1.042,0 -2.163,-0.521 -2.804,-1.322 -0.681,-0.841 -0.882,-1.921 -0.882,-2.964 0,-2.683 1.562,-7.129 5.006,-7.129 1.001,0 2.083,0.481 2.725,1.121 0.92,0.924 1,2.204 1,2.926 C 5.045,-4.485 3.324,0 0,0"
             style="fill:#000000;fill-opacity:1;fill-rule:nonzero;stroke:none"
             id="path90"
             inkscape:connector-curvature="0" /></g><g
           id="g92"
           transform="translate(63.6431,64.9453)"><path
             d="m 0,0 c -0.361,0 -2.523,-0.08 -4.206,-0.643 -0.881,-0.319 -3.443,-1.279 -3.443,-4.125 0,-2.84 2.763,-4.883 7.048,-4.883 3.845,0 5.887,1.839 5.887,4.325 0,2.042 -1.321,3.122 -4.365,5.285 C 0.601,0 0.399,0 0,0"
             style="fill:#000000;fill-opacity:1;fill-rule:nonzero;stroke:none"
             id="path94"
             inkscape:connector-curvature="0" /></g><g
           id="g96"
           transform="translate(87.8999,76.29)"><path
             d="m 0,0 -5.982,0 0,-5.981 -1.857,0 0,5.981 -5.981,0 0,1.857 5.981,0 0,5.981 1.857,0 0,-5.981 L 0,1.857 0,0 z m -17.649,0.989 c 0,-2.962 -1.683,-4.365 -3.364,-5.685 -0.521,-0.522 -1.123,-1.082 -1.123,-1.965 0,-0.88 0.602,-1.361 1.042,-1.722 l 1.442,-1.12 c 1.762,-1.481 3.364,-2.844 3.364,-5.607 0,-3.765 -3.645,-7.57 -10.534,-7.57 -5.806,0 -8.61,2.763 -8.61,5.727 0,1.442 0.722,3.484 3.085,4.887 2.483,1.522 5.848,1.721 7.649,1.841 -0.561,0.722 -1.201,1.484 -1.201,2.723 0,0.684 0.199,1.083 0.401,1.563 -0.442,-0.039 -0.881,-0.081 -1.283,-0.081 -4.244,0 -6.647,3.166 -6.647,6.289 0,1.841 0.841,3.884 2.562,5.367 2.284,1.883 5.008,2.202 7.169,2.202 l 8.251,0 -2.563,-1.441 -2.484,0 c 0.921,-0.761 2.844,-2.363 2.844,-5.408 m 12.299,15.338 -13.942,0 -14.23,0 -12.245,0 0,-40.122 c 0,-3.313 2.686,-6 6,-6 l 42.146,0 c 3.314,0 6,2.687 6,6 l 0,40.122 -13.729,0 z"
             style="fill:#000000;fill-opacity:1;fill-rule:nonzero;stroke:none"
             id="path98"
             inkscape:connector-curvature="0" /></g></g></g><rect
       style="fill:none"
       id="rect3161"
       width="68.796272"
       height="68.182327"
       x="170.7626"
       y="156.27081"
       transform="matrix(0.8,0,0,-0.8,0,226)" /></g></svg>